<svg width="78" height="78" viewBox="0 0 78 78" fill="none" xmlns="http://www.w3.org/2000/svg">
<g clip-path="url(#clip0_9_406)">
<path d="M34.225 44.5933H4.82442C3.4801 44.5933 3.4801 42.561 4.82442 42.561H31.3763C32.8872 42.561 32.889 40.2765 31.3763 40.2765H7.07684V6.60196H69.1087V40.2765H61.7551C60.2448 40.2765 60.2418 42.561 61.7551 42.561H71.7747C73.1184 42.561 73.1184 44.5933 71.7747 44.5933H59.1106C57.6002 44.5933 57.5978 46.8784 59.1106 46.8784H71.7747C73.5945 46.8784 75.0751 45.3972 75.0751 43.5775C75.0751 41.7571 73.5945 40.2765 71.7747 40.2765H71.3939V6.60196H71.7747C73.5945 6.60196 75.0751 5.12077 75.0751 3.30098C75.0751 1.48059 73.5945 0 71.7747 0H4.82442C3.00403 0 1.52344 1.48059 1.52344 3.30098C1.52344 5.11006 2.98677 6.58411 4.79169 6.60196V40.2765C2.98677 40.2943 1.52344 41.7678 1.52344 43.5775C1.52344 45.3972 3.00403 46.8784 4.82442 46.8784H34.225C35.7353 46.8784 35.7377 44.5933 34.225 44.5933ZM4.82442 2.28516H71.7747C73.1184 2.28516 73.1184 4.3168 71.7747 4.3168H4.82442C3.47951 4.3168 3.48129 2.28516 4.82442 2.28516Z" fill="#4C858B"/>
<path d="M21.1877 10.7349C21.1877 9.73155 20.3713 8.91568 19.3679 8.91568H12.1953C11.192 8.91568 10.3761 9.73155 10.3761 10.7349V15.1659C10.3761 16.1693 11.192 16.9851 12.1953 16.9851H19.3679C20.3713 16.9851 21.1877 16.1693 21.1877 15.1659V10.7349ZM18.9026 14.7H12.6607V11.2002H18.9026V14.7Z" fill="#4C858B"/>
<path d="M21.1877 21.3234C21.1877 20.3201 20.3713 19.5042 19.3679 19.5042H12.1953C11.192 19.5042 10.3761 20.3201 10.3761 21.3234V25.7545C10.3761 26.7578 11.192 27.5737 12.1953 27.5737H19.3679C20.3713 27.5737 21.1877 26.7578 21.1877 25.7545V21.3234ZM18.9026 25.2885H12.6607V21.7888H18.9026V25.2885Z" fill="#4C858B"/>
<path d="M19.3679 30.0926H12.1953C11.192 30.0926 10.3761 30.9084 10.3761 31.9118V36.3428C10.3761 37.3461 11.192 38.162 12.1953 38.162H19.3679C20.3713 38.162 21.1877 37.3461 21.1877 36.3428V31.9118C21.1877 30.9084 20.3713 30.0926 19.3679 30.0926ZM18.9026 35.8775H12.6607V32.3771H18.9026V35.8775Z" fill="#4C858B"/>
<path d="M69.5224 51.9159C68.278 51.3809 66.973 50.9989 65.6435 50.74L54.0672 48.4894V45.6288C57.3182 43.4114 59.0779 40.2705 59.4611 36.7434C61.1482 36.6095 62.4806 35.1938 62.4806 33.4728V31.1246C65.2317 29.9284 64.8598 25.9139 61.9492 25.2367V24.3298C61.9492 16.1824 55.3443 9.57684 47.1963 9.57684H45.9597C37.8116 9.57684 31.2067 16.1824 31.2067 24.3298V25.2361C28.2973 25.9133 27.9242 29.9284 30.6759 31.1246V33.4722C30.6759 35.1938 32.0077 36.6095 33.6954 36.7428C34.0768 40.2539 35.8151 43.3954 39.0893 45.6288V48.4888L27.513 50.74C26.1835 50.9989 24.8785 51.3803 23.6342 51.9159C18.9371 53.9374 16.6454 57.1646 16.6454 61.723V64.0701C16.6454 65.5804 18.9299 65.5828 18.9299 64.0701V61.7236C18.9299 58.3001 20.4855 55.9328 23.8978 54.2975C24.0352 54.9057 26.1288 60.5882 26.1288 68.5279V75.7155H21.3008C19.9916 75.7155 18.9299 74.6538 18.9299 73.3446V68.616C18.9299 67.1057 16.6454 67.1033 16.6454 68.616V73.3446C16.6454 75.916 18.7294 78 21.3008 78H71.8557C74.4271 78 76.5111 75.916 76.5111 73.3446V61.7236C76.5111 57.1646 74.2188 53.9374 69.5224 51.9159ZM67.1283 53.4483C66.9694 54.1457 64.7426 60.1407 64.7426 68.5279V75.7155H47.7205V69.9591C47.7205 68.2476 48.2412 66.6028 49.2261 65.2031C50.7014 63.1054 56.7779 54.3379 58.5798 51.6945C66.7814 53.3459 65.7923 53.0037 67.1283 53.4483ZM45.799 63.888C44.9224 62.6419 43.784 61.0065 42.5956 59.2927C42.9485 59.2147 43.293 59.079 43.6162 58.8856L46.578 57.1093L49.5397 58.8856C49.8629 59.079 50.2074 59.2147 50.5603 59.2927C49.3731 61.006 48.2347 62.6407 47.3575 63.888C47.0653 64.3034 46.8053 64.7354 46.578 65.1811C46.3512 64.7354 46.0912 64.3034 45.799 63.888ZM44.2458 55.8435C42.4367 56.8123 42.5652 57.1021 41.7434 57.0045C41.2322 56.9438 40.7734 56.6594 40.4806 56.2357C39.1149 54.2576 37.8503 52.4223 37.0226 51.2185L39.3107 50.7739C40.0498 53.0186 42.4855 54.8039 44.2458 55.8435ZM56.134 51.2191C55.3038 52.4253 54.0363 54.2659 52.667 56.2488C52.1082 57.0569 51.1066 57.1605 50.715 56.9254L48.9101 55.8435C50.671 54.8039 53.1061 53.0186 53.8452 50.7739L56.134 51.2191ZM39.9236 13.4229V14.8559C39.9236 16.3663 42.2082 16.3686 42.2082 14.8559V12.4386C43.2335 12.1143 44.316 11.9197 45.436 11.8733V17.5225C45.436 19.0329 47.7205 19.0352 47.7205 17.5225V11.8733C48.8405 11.9197 49.923 12.1149 50.9477 12.4386V14.8559C50.9477 16.3663 53.2329 16.3686 53.2329 14.8559V13.4235C60.3752 17.3916 59.6158 24.9755 59.6646 25.1564H33.4919C33.5311 25.0094 32.8182 17.3714 39.9236 13.4229ZM31.9125 27.4409H61.244C62.3396 27.4409 62.3378 29.0959 61.244 29.0959H31.9125C30.8169 29.0959 30.8187 27.4409 31.9125 27.4409ZM35.9079 35.5866C35.8943 34.9653 35.3872 34.469 34.7654 34.469C34.5749 34.4214 32.961 34.7653 32.961 33.4728V31.381H60.1961V33.4728C60.1961 34.7635 58.5381 34.4321 58.3911 34.469C57.7693 34.469 57.2617 34.9653 57.2486 35.5866C57.1873 38.443 55.9739 41.0959 53.9184 42.8651C49.5552 46.622 43.6019 46.6226 39.2381 42.8651C37.1826 41.0959 35.9686 38.4424 35.9079 35.5866ZM51.782 46.8904V49.4308C51.782 51.4738 48.315 53.6369 46.578 54.5111C44.8427 53.6375 41.3834 51.4797 41.3739 49.4391C41.3739 49.4368 41.3739 49.4338 41.3739 49.4308V46.8904C44.6993 48.3245 48.4531 48.3263 51.782 46.8904ZM26.0282 53.4483C27.3624 53.0049 26.371 53.3465 34.5761 51.6945L35.2289 52.6431C35.8949 53.6113 36.8167 54.9497 37.8384 56.4303C39.7023 59.132 42.2731 62.8472 43.9304 65.2025C44.9153 66.6028 45.436 68.247 45.436 69.9591V75.7149H28.4139V68.5273C28.4139 59.9247 26.2413 54.3861 26.0282 53.4483ZM74.226 73.3446C74.226 74.6514 73.1631 75.7149 71.8557 75.7149H67.0277V68.5279C67.0277 60.806 69.1742 54.6712 69.2593 54.2975C72.671 55.9328 74.2266 58.3001 74.2266 61.7236V73.3446H74.226Z" fill="#4C858B"/>
<path d="M52.8062 66.0843C51.7291 66.0843 50.8525 66.9609 50.8525 68.038V70.3273C50.8525 71.405 51.7291 72.281 52.8062 72.281H59.5254C60.6025 72.281 61.4791 71.405 61.4791 70.3273V68.038C61.4791 66.9609 60.6025 66.0843 59.5254 66.0843H52.8062ZM59.194 69.9959H53.1377V68.3695H59.194V69.9959Z" fill="#4C858B"/>
</g>
<defs>
<clipPath id="clip0_9_406">
<rect width="78" height="78" fill="white"/>
</clipPath>
</defs>
</svg>
