<svg width="22" height="21" viewBox="0 0 22 21" fill="none" xmlns="http://www.w3.org/2000/svg">
<path d="M21.0833 0H0.916683C0.410405 0 0 0.410405 0 0.916631C0 1.42286 0.410405 1.83332 0.916683 1.83332H21.0833C21.5896 1.83332 22 1.42291 22 0.916631C22 0.410352 21.5896 0 21.0833 0Z" fill="#4C858B"/>
<path d="M21.0833 9.1665H0.916683C0.410405 9.1665 0 9.57691 0 10.0832C0 10.5895 0.410405 10.9999 0.916683 10.9999H21.0833C21.5896 10.9999 22 10.5895 22 10.0832C22 9.57691 21.5896 9.1665 21.0833 9.1665Z" fill="#4C858B"/>
<path d="M21.0833 18.3333H0.916683C0.410405 18.3333 0 18.7437 0 19.2499C0 19.7562 0.410405 20.1666 0.916683 20.1666H21.0833C21.5896 20.1666 22 19.7562 22 19.2499C22 18.7437 21.5896 18.3333 21.0833 18.3333Z" fill="#4C858B"/>
</svg>
