<svg width="24" height="21" viewBox="0 0 24 21" fill="none" xmlns="http://www.w3.org/2000/svg">
<path d="M23.6437 6.78667C23.3268 6.38908 22.8513 6.16098 22.3392 6.16098H17.7171L15.2108 0.421936C15.0554 0.0661078 14.6409 -0.0965016 14.285 0.0589828C13.9291 0.214373 13.7666 0.628889 13.9221 0.984764L16.1826 6.16103H7.81739L10.0779 0.984764C10.2333 0.628889 10.0709 0.21442 9.71499 0.0589828C9.35916 -0.0965016 8.94464 0.0660141 8.78925 0.421936L6.28289 6.16103H1.66083C1.14867 6.16103 0.673222 6.38908 0.3563 6.78672C0.0451904 7.17709 -0.0696064 7.67894 0.0413467 8.16372L2.50964 18.945C2.682 19.6978 3.34796 20.2235 4.12913 20.2235H19.8709C20.652 20.2235 21.318 19.6978 21.4904 18.945L23.9587 8.16367C24.0696 7.67889 23.9548 7.17705 23.6437 6.78667ZM19.8709 18.8172H4.12913C4.00974 18.8172 3.90516 18.739 3.88046 18.631L1.41216 7.84989C1.3928 7.76528 1.42528 7.70162 1.45603 7.66314C1.48453 7.62733 1.54908 7.56728 1.66083 7.56728H5.66878L5.48461 7.98901C5.32922 8.34489 5.49169 8.75936 5.84757 8.9148C5.93916 8.95483 6.0346 8.97377 6.12858 8.97377C6.39961 8.97377 6.65789 8.81612 6.7733 8.55189L7.20328 7.56737H16.7968L17.2268 8.55189C17.3422 8.81617 17.6005 8.97377 17.8715 8.97377C17.9655 8.97377 18.0609 8.95483 18.1525 8.9148C18.5084 8.75941 18.6709 8.34489 18.5155 7.98901L18.3313 7.56728H22.3393C22.451 7.56728 22.5156 7.62733 22.5441 7.66314C22.5748 7.70167 22.6073 7.76533 22.5879 7.84984L20.1196 18.6311C20.0949 18.739 19.9903 18.8172 19.8709 18.8172Z" fill="black"/>
<path d="M7.78125 10.6143C7.39294 10.6143 7.07812 10.9291 7.07812 11.3174V16.4736C7.07812 16.8619 7.39294 17.1768 7.78125 17.1768C8.16956 17.1768 8.48438 16.8619 8.48438 16.4736V11.3174C8.48438 10.9291 8.16961 10.6143 7.78125 10.6143Z" fill="black"/>
<path d="M12 10.6143C11.6117 10.6143 11.2969 10.9291 11.2969 11.3174V16.4736C11.2969 16.8619 11.6117 17.1768 12 17.1768C12.3883 17.1768 12.7031 16.8619 12.7031 16.4736V11.3174C12.7031 10.9291 12.3883 10.6143 12 10.6143Z" fill="black"/>
<path d="M16.2188 10.6143C15.8304 10.6143 15.5156 10.9291 15.5156 11.3174V16.4736C15.5156 16.8619 15.8304 17.1768 16.2188 17.1768C16.6071 17.1768 16.9219 16.8619 16.9219 16.4736V11.3174C16.9218 10.9291 16.6071 10.6143 16.2188 10.6143Z" fill="black"/>
</svg>
