<svg width="17" height="17" viewBox="0 0 17 17" fill="none" xmlns="http://www.w3.org/2000/svg">
<path d="M8.35573 0.522949C5.3011 0.522949 2.81592 3.00812 2.81592 6.06275C2.81592 9.90209 8.36118 16.4604 8.36118 16.4604C8.36118 16.4604 13.8955 9.71327 13.8955 6.06275C13.8955 3.00812 11.4105 0.522949 8.35573 0.522949ZM10.0272 7.6848C9.56632 8.14559 8.96107 8.37604 8.35573 8.37604C7.75049 8.37604 7.14505 8.14559 6.68435 7.6848C5.76267 6.76322 5.76267 5.26364 6.68435 4.34196C7.13065 3.89547 7.72432 3.64955 8.35573 3.64955C8.98714 3.64955 9.58072 3.89556 10.0272 4.34196C10.9489 5.26364 10.9489 6.76322 10.0272 7.6848Z" fill="#4C858B"/>
</svg>
