<svg width="87" height="87" viewBox="0 0 87 87" fill="none" xmlns="http://www.w3.org/2000/svg">
<g clip-path="url(#clip0_9_416)" filter="url(#filter0_d_9_416)">
<path d="M81.7256 0H10.3709C9.6679 0 9.09676 0.571145 9.09676 1.27419V5.09676H5.27419C4.57115 5.09676 4 5.6679 4 6.37095V57.3385C4 58.0434 4.57115 58.6127 5.27419 58.6127H30.1476C31.3609 60.0791 32.8721 61.2861 34.5806 62.1628V77.7255C34.5806 78.2401 34.8916 78.7067 35.367 78.9027C35.8423 79.1005 36.3898 78.991 36.7556 78.6264L40.9515 74.4306L45.1474 78.6264C45.3906 78.8697 45.7173 78.9997 46.0483 78.9997C46.2125 78.9997 46.3786 78.9692 46.5367 78.9027C47.0114 78.7067 47.3224 78.2401 47.3224 77.7255V62.1628C49.0303 61.2861 50.5409 60.0804 51.7554 58.6127H76.6288C77.3325 58.6127 77.903 58.0434 77.903 57.3385V53.5159H81.7256C82.4292 53.5159 82.9998 52.9467 82.9998 52.2418V1.27419C82.9998 0.571145 82.4292 0 81.7256 0ZM44.7741 74.6496L41.8524 71.7279C41.354 71.2295 40.549 71.2295 40.0506 71.7279L37.1289 74.6496V63.1669C38.3459 63.5122 39.625 63.7095 40.9515 63.7095C42.278 63.7095 43.5571 63.5122 44.7741 63.1669V74.6496ZM40.9515 61.1611C34.6291 61.1611 29.4838 56.017 29.4838 49.6934C29.4838 43.3697 34.6291 38.2257 40.9515 38.2257C47.2739 38.2257 52.4192 43.3697 52.4192 49.6934C52.4192 56.017 47.2739 61.1611 40.9515 61.1611ZM27.0007 50.9676H19.2001C18.6395 47.066 15.5455 43.9738 11.6451 43.4126V20.2968C15.5455 19.7356 18.6395 16.6422 19.2001 12.7419H62.7048C63.2654 16.6422 66.3588 19.7356 70.2591 20.2968V43.4139C66.3588 43.9738 63.2654 47.0672 62.7048 50.9688H54.9041C54.9408 50.547 54.9676 50.1239 54.9676 49.6934C54.9676 41.9655 48.6794 35.6773 40.9515 35.6773C33.2236 35.6773 26.9354 41.9655 26.9354 49.6934C26.9354 50.1239 26.9622 50.547 27.0007 50.9676ZM75.3546 56.0643H53.4209C53.8353 55.2568 54.1725 54.4056 54.4251 53.5159H63.8869C64.5906 53.5159 65.1611 52.9467 65.1611 52.2418C65.1611 48.729 68.0193 45.8708 71.5321 45.8708C72.2357 45.8708 72.8062 45.3015 72.8062 44.5966V19.1128C72.8062 18.4098 72.2357 17.8386 71.5321 17.8386C68.0193 17.8386 65.1611 14.9804 65.1611 11.4677C65.1611 10.7647 64.5906 10.1935 63.8869 10.1935H18.0161C17.313 10.1935 16.7419 10.7647 16.7419 11.4677C16.7419 14.9804 13.8843 17.8386 10.3709 17.8386C9.6679 17.8386 9.09676 18.4098 9.09676 19.1128V44.5966C9.09676 45.3015 9.6679 45.8708 10.3709 45.8708C13.8843 45.8708 16.7419 48.729 16.7419 52.2418C16.7419 52.9467 17.313 53.5159 18.0161 53.5159H27.4786C27.7305 54.4056 28.0684 55.2568 28.4821 56.0643H6.54838V7.64514H75.3546V56.0643ZM80.4514 50.9676H77.903V6.37095C77.903 5.6679 77.3325 5.09676 76.6288 5.09676H11.6451V2.54838H80.4514V50.9676Z" fill="#4C858B"/>
<path d="M40.9517 40.7742C36.0335 40.7742 32.0323 44.7766 32.0323 49.6936H34.5807C34.5807 46.1809 37.439 43.3226 40.9517 43.3226V40.7742Z" fill="#4C858B"/>
<path d="M47.3226 49.6935C47.3226 53.2063 44.465 56.0645 40.9517 56.0645V58.6129C45.8699 58.6129 49.871 54.6105 49.871 49.6935H47.3226Z" fill="#4C858B"/>
<path d="M60.0646 21.6613V16.5645C60.0646 15.8615 59.494 15.2903 58.7904 15.2903H23.1129C22.4099 15.2903 21.8387 15.8615 21.8387 16.5645V21.6613C21.8387 22.3643 22.4099 22.9355 23.1129 22.9355H58.7904C59.494 22.9355 60.0646 22.3643 60.0646 21.6613ZM57.5162 20.3871H24.3871V17.8387H57.5162V20.3871Z" fill="#4C858B"/>
<path d="M14.1936 25.4838H24.3871V28.0322H14.1936V25.4838Z" fill="#4C858B"/>
<path d="M14.1936 30.5806H24.3871V33.129H14.1936V30.5806Z" fill="#4C858B"/>
<path d="M26.9355 30.5806H67.7097V33.129H26.9355V30.5806Z" fill="#4C858B"/>
<path d="M26.9355 25.4838H67.7097V28.0322H26.9355V25.4838Z" fill="#4C858B"/>
</g>
<defs>
<filter id="filter0_d_9_416" x="0" y="0" width="87" height="87" filterUnits="userSpaceOnUse" color-interpolation-filters="sRGB">
<feFlood flood-opacity="0" result="BackgroundImageFix"/>
<feColorMatrix in="SourceAlpha" type="matrix" values="0 0 0 0 0 0 0 0 0 0 0 0 0 0 0 0 0 0 127 0" result="hardAlpha"/>
<feOffset dy="4"/>
<feGaussianBlur stdDeviation="2"/>
<feComposite in2="hardAlpha" operator="out"/>
<feColorMatrix type="matrix" values="0 0 0 0 0 0 0 0 0 0 0 0 0 0 0 0 0 0 0.25 0"/>
<feBlend mode="normal" in2="BackgroundImageFix" result="effect1_dropShadow_9_416"/>
<feBlend mode="normal" in="SourceGraphic" in2="effect1_dropShadow_9_416" result="shape"/>
</filter>
<clipPath id="clip0_9_416">
<rect width="79" height="79" fill="white" transform="translate(4)"/>
</clipPath>
</defs>
</svg>
